<svg width="188" height="36" viewBox="0 0 188 36" fill="none" xmlns="http://www.w3.org/2000/svg">
<path d="M4.99413 30.176C4.56746 30.176 4.11946 30.144 3.65013 30.08C3.19146 30.0267 2.75413 29.9413 2.33813 29.824C1.92213 29.7067 1.54879 29.568 1.21813 29.408C0.930125 29.2693 0.727458 29.088 0.610125 28.864C0.492792 28.6293 0.450125 28.384 0.482125 28.128C0.514125 27.872 0.604792 27.648 0.754125 27.456C0.903458 27.2533 1.10079 27.12 1.34613 27.056C1.59146 26.9813 1.86879 27.0133 2.17813 27.152C2.58346 27.344 3.04213 27.4933 3.55413 27.6C4.06613 27.7067 4.54613 27.76 4.99413 27.76C5.69813 27.76 6.18879 27.6693 6.46613 27.488C6.75413 27.296 6.89813 27.0613 6.89813 26.784C6.89813 26.5387 6.79679 26.3413 6.59413 26.192C6.40213 26.0427 6.05546 25.9147 5.55413 25.808L3.68213 25.408C2.65813 25.1947 1.89546 24.8213 1.39413 24.288C0.892792 23.7547 0.642125 23.0667 0.642125 22.224C0.642125 21.6693 0.754125 21.168 0.978125 20.72C1.21279 20.2613 1.53813 19.872 1.95413 19.552C2.38079 19.232 2.88213 18.9867 3.45813 18.816C4.04479 18.6347 4.69546 18.544 5.41013 18.544C5.96479 18.544 6.52479 18.608 7.09013 18.736C7.66613 18.8533 8.16213 19.0347 8.57813 19.28C8.82346 19.408 8.99946 19.584 9.10613 19.808C9.21279 20.032 9.25546 20.2667 9.23413 20.512C9.21279 20.7467 9.12746 20.9547 8.97813 21.136C8.83946 21.3173 8.64746 21.44 8.40213 21.504C8.16746 21.5573 7.88479 21.5147 7.55413 21.376C7.24479 21.2373 6.89279 21.136 6.49813 21.072C6.11413 20.9973 5.74079 20.96 5.37813 20.96C4.98346 20.96 4.64746 21.008 4.37013 21.104C4.09279 21.1893 3.87946 21.3173 3.73013 21.488C3.59146 21.6587 3.52213 21.856 3.52213 22.08C3.52213 22.304 3.61279 22.496 3.79413 22.656C3.98613 22.8053 4.33279 22.9333 4.83413 23.04L6.69013 23.44C7.72479 23.664 8.49813 24.032 9.01013 24.544C9.52213 25.056 9.77813 25.7227 9.77813 26.544C9.77813 27.0987 9.66613 27.6 9.44213 28.048C9.21813 28.496 8.89813 28.88 8.48213 29.2C8.06613 29.5093 7.56479 29.7493 6.97813 29.92C6.39146 30.0907 5.73013 30.176 4.99413 30.176ZM14.235 30.176C13.435 30.176 12.7737 30.0533 12.251 29.808C11.739 29.5627 11.355 29.1947 11.099 28.704C10.843 28.2027 10.715 27.5787 10.715 26.832V24.224H10.171C9.82967 24.224 9.563 24.1333 9.371 23.952C9.18967 23.7707 9.099 23.5093 9.099 23.168C9.099 22.8267 9.18967 22.5707 9.371 22.4C9.563 22.2187 9.82967 22.128 10.171 22.128H10.715V21.136C10.715 20.6667 10.8377 20.3093 11.083 20.064C11.3283 19.8187 11.6803 19.696 12.139 19.696C12.5977 19.696 12.9497 19.8187 13.195 20.064C13.4403 20.3093 13.563 20.6667 13.563 21.136V22.128H14.875C15.227 22.128 15.4937 22.2187 15.675 22.4C15.867 22.5707 15.963 22.8267 15.963 23.168C15.963 23.5093 15.867 23.7707 15.675 23.952C15.4937 24.1333 15.227 24.224 14.875 24.224H13.563V26.736C13.563 27.1307 13.6537 27.424 13.835 27.616C14.027 27.7973 14.3257 27.888 14.731 27.888C14.8803 27.888 15.0243 27.872 15.163 27.84C15.3017 27.808 15.4297 27.792 15.547 27.792C15.7177 27.7813 15.8563 27.8347 15.963 27.952C16.0697 28.0587 16.123 28.3093 16.123 28.704C16.123 29.024 16.075 29.296 15.979 29.52C15.883 29.7333 15.7123 29.888 15.467 29.984C15.3177 30.0373 15.115 30.08 14.859 30.112C14.603 30.1547 14.395 30.176 14.235 30.176ZM18.8555 30.176C18.2475 30.176 17.7088 30.064 17.2395 29.84C16.7808 29.616 16.4182 29.312 16.1515 28.928C15.8955 28.5333 15.7675 28.0853 15.7675 27.584C15.7675 27.008 15.9168 26.5547 16.2155 26.224C16.5142 25.8933 16.9942 25.6587 17.6555 25.52C18.3168 25.3707 19.1968 25.296 20.2955 25.296H21.1755V26.64H20.2955C19.8795 26.64 19.5328 26.672 19.2555 26.736C18.9888 26.7893 18.7915 26.88 18.6635 27.008C18.5355 27.1253 18.4715 27.28 18.4715 27.472C18.4715 27.7173 18.5568 27.92 18.7275 28.08C18.9088 28.24 19.1648 28.32 19.4955 28.32C19.7622 28.32 19.9968 28.2613 20.1995 28.144C20.4128 28.0267 20.5835 27.8667 20.7115 27.664C20.8395 27.4507 20.9035 27.2053 20.9035 26.928V25.072C20.9035 24.688 20.8022 24.416 20.5995 24.256C20.4075 24.096 20.0715 24.016 19.5915 24.016C19.3355 24.016 19.0475 24.048 18.7275 24.112C18.4075 24.1653 18.0502 24.2667 17.6555 24.416C17.3675 24.5227 17.1222 24.5387 16.9195 24.464C16.7168 24.3893 16.5568 24.2613 16.4395 24.08C16.3328 23.8987 16.2795 23.7013 16.2795 23.488C16.2902 23.2747 16.3595 23.072 16.4875 22.88C16.6262 22.688 16.8342 22.5387 17.1115 22.432C17.6235 22.24 18.0928 22.112 18.5195 22.048C18.9568 21.984 19.3568 21.952 19.7195 21.952C20.5942 21.952 21.3142 22.08 21.8795 22.336C22.4555 22.5813 22.8822 22.9653 23.1595 23.488C23.4475 24 23.5915 24.6613 23.5915 25.472V28.704C23.5915 29.1733 23.4795 29.5307 23.2555 29.776C23.0315 30.0213 22.7062 30.144 22.2795 30.144C21.8422 30.144 21.5062 30.0213 21.2715 29.776C21.0475 29.5307 20.9355 29.1733 20.9355 28.704V28.288L21.0315 28.512C20.9782 28.8533 20.8555 29.1467 20.6635 29.392C20.4715 29.6373 20.2208 29.8293 19.9115 29.968C19.6022 30.1067 19.2502 30.176 18.8555 30.176ZM25.8692 30.144C25.3999 30.144 25.0372 30.0213 24.7812 29.776C24.5359 29.5307 24.4132 29.1733 24.4132 28.704V23.408C24.4132 22.9493 24.5306 22.5973 24.7652 22.352C25.0106 22.1067 25.3572 21.984 25.8052 21.984C26.2532 21.984 26.5946 22.1067 26.8292 22.352C27.0639 22.5973 27.1812 22.9493 27.1812 23.408V24.064H27.0212C27.1279 23.424 27.3999 22.9173 27.8372 22.544C28.2852 22.1707 28.8399 21.9733 29.5012 21.952C29.8106 21.9413 30.0399 22.0213 30.1892 22.192C30.3492 22.352 30.4346 22.656 30.4452 23.104C30.4452 23.488 30.3652 23.792 30.2052 24.016C30.0452 24.24 29.7412 24.3733 29.2932 24.416L28.9252 24.448C28.3599 24.5013 27.9492 24.6613 27.6932 24.928C27.4372 25.184 27.3092 25.568 27.3092 26.08V28.704C27.3092 29.1733 27.1866 29.5307 26.9412 29.776C26.6959 30.0213 26.3386 30.144 25.8692 30.144ZM35.1475 30.176C34.3475 30.176 33.6862 30.0533 33.1635 29.808C32.6515 29.5627 32.2675 29.1947 32.0115 28.704C31.7555 28.2027 31.6275 27.5787 31.6275 26.832V24.224H31.0835C30.7422 24.224 30.4755 24.1333 30.2835 23.952C30.1022 23.7707 30.0115 23.5093 30.0115 23.168C30.0115 22.8267 30.1022 22.5707 30.2835 22.4C30.4755 22.2187 30.7422 22.128 31.0835 22.128H31.6275V21.136C31.6275 20.6667 31.7502 20.3093 31.9955 20.064C32.2408 19.8187 32.5928 19.696 33.0515 19.696C33.5102 19.696 33.8622 19.8187 34.1075 20.064C34.3528 20.3093 34.4755 20.6667 34.4755 21.136V22.128H35.7875C36.1395 22.128 36.4062 22.2187 36.5875 22.4C36.7795 22.5707 36.8755 22.8267 36.8755 23.168C36.8755 23.5093 36.7795 23.7707 36.5875 23.952C36.4062 24.1333 36.1395 24.224 35.7875 24.224H34.4755V26.736C34.4755 27.1307 34.5662 27.424 34.7475 27.616C34.9395 27.7973 35.2382 27.888 35.6435 27.888C35.7928 27.888 35.9368 27.872 36.0755 27.84C36.2142 27.808 36.3422 27.792 36.4595 27.792C36.6302 27.7813 36.7688 27.8347 36.8755 27.952C36.9822 28.0587 37.0355 28.3093 37.0355 28.704C37.0355 29.024 36.9875 29.296 36.8915 29.52C36.7955 29.7333 36.6248 29.888 36.3795 29.984C36.2302 30.0373 36.0275 30.08 35.7715 30.112C35.5155 30.1547 35.3075 30.176 35.1475 30.176ZM38.7213 30.144C38.2733 30.144 37.9266 30.0107 37.6813 29.744C37.4359 29.4773 37.3133 29.0933 37.3133 28.592V23.536C37.3133 23.0347 37.4359 22.6507 37.6813 22.384C37.9266 22.1173 38.2733 21.984 38.7213 21.984C39.1799 21.984 39.5319 22.1173 39.7773 22.384C40.0333 22.6507 40.1613 23.0347 40.1613 23.536V28.592C40.1613 29.0933 40.0386 29.4773 39.7933 29.744C39.5479 30.0107 39.1906 30.144 38.7213 30.144ZM38.7213 20.848C38.2199 20.848 37.8306 20.7307 37.5533 20.496C37.2866 20.2613 37.1533 19.92 37.1533 19.472C37.1533 19.0347 37.2866 18.6987 37.5533 18.464C37.8306 18.2293 38.2199 18.112 38.7213 18.112C39.2439 18.112 39.6386 18.2293 39.9053 18.464C40.1719 18.6987 40.3053 19.0347 40.3053 19.472C40.3053 19.92 40.1719 20.2613 39.9053 20.496C39.6386 20.7307 39.2439 20.848 38.7213 20.848ZM42.4213 30.144C41.9733 30.144 41.6266 30.0213 41.3813 29.776C41.1359 29.5307 41.0133 29.1733 41.0133 28.704V23.408C41.0133 22.9493 41.1306 22.5973 41.3653 22.352C41.6106 22.1067 41.9573 21.984 42.4053 21.984C42.8533 21.984 43.1946 22.1067 43.4293 22.352C43.6639 22.5973 43.7813 22.9493 43.7813 23.408V24.16L43.6053 23.504C43.8613 23.0027 44.2239 22.6187 44.6933 22.352C45.1733 22.0853 45.7173 21.952 46.3253 21.952C46.9546 21.952 47.4719 22.0747 47.8773 22.32C48.2826 22.5547 48.5866 22.928 48.7893 23.44C48.9919 23.9413 49.0933 24.576 49.0933 25.344V28.704C49.0933 29.1733 48.9706 29.5307 48.7253 29.776C48.4799 30.0213 48.1279 30.144 47.6693 30.144C47.2106 30.144 46.8586 30.0213 46.6133 29.776C46.3679 29.5307 46.2453 29.1733 46.2453 28.704V25.456C46.2453 24.976 46.1599 24.6347 45.9893 24.432C45.8293 24.2293 45.5893 24.128 45.2693 24.128C44.8426 24.128 44.5013 24.2667 44.2453 24.544C43.9893 24.8107 43.8613 25.1733 43.8613 25.632V28.704C43.8613 29.664 43.3813 30.144 42.4213 30.144ZM53.8204 33.056C53.2337 33.056 52.6844 33.0133 52.1724 32.928C51.6604 32.8533 51.2177 32.7413 50.8444 32.592C50.535 32.4853 50.3164 32.3307 50.1884 32.128C50.0604 31.9253 50.0017 31.712 50.0124 31.488C50.023 31.264 50.0817 31.0613 50.1884 30.88C50.3057 30.6987 50.4604 30.5653 50.6524 30.48C50.8444 30.4053 51.0577 30.4107 51.2924 30.496C51.7617 30.688 52.1884 30.8107 52.5724 30.864C52.9564 30.928 53.2817 30.96 53.5484 30.96C54.199 30.96 54.6844 30.8213 55.0044 30.544C55.335 30.2773 55.5004 29.856 55.5004 29.28V28.272H55.6284C55.4684 28.72 55.143 29.088 54.6524 29.376C54.1617 29.6533 53.6284 29.792 53.0524 29.792C52.3484 29.792 51.735 29.632 51.2124 29.312C50.6897 28.9813 50.279 28.5227 49.9804 27.936C49.6924 27.3493 49.5484 26.6613 49.5484 25.872C49.5484 25.2747 49.6337 24.736 49.8044 24.256C49.975 23.776 50.2097 23.3653 50.5084 23.024C50.8177 22.6827 51.1857 22.4213 51.6124 22.24C52.0497 22.048 52.5297 21.952 53.0524 21.952C53.6497 21.952 54.183 22.0907 54.6524 22.368C55.1324 22.6453 55.4524 23.008 55.6124 23.456L55.4524 24.112V23.408C55.4524 22.9493 55.575 22.5973 55.8204 22.352C56.0764 22.1067 56.4284 21.984 56.8764 21.984C57.3244 21.984 57.6657 22.1067 57.9004 22.352C58.1457 22.5973 58.2684 22.9493 58.2684 23.408V28.944C58.2684 30.3093 57.8844 31.3333 57.1164 32.016C56.3484 32.7093 55.2497 33.056 53.8204 33.056ZM53.9324 27.696C54.2524 27.696 54.5244 27.6267 54.7484 27.488C54.9724 27.3387 55.1484 27.1307 55.2764 26.864C55.4044 26.5867 55.4684 26.256 55.4684 25.872C55.4684 25.296 55.3297 24.848 55.0524 24.528C54.775 24.208 54.4017 24.048 53.9324 24.048C53.6337 24.048 53.367 24.1227 53.1324 24.272C52.8977 24.4107 52.7164 24.6187 52.5884 24.896C52.471 25.1627 52.4124 25.488 52.4124 25.872C52.4124 26.448 52.551 26.896 52.8284 27.216C53.1057 27.536 53.4737 27.696 53.9324 27.696ZM65.6461 30.176C65.0381 30.176 64.4995 30.064 64.0301 29.84C63.5715 29.616 63.2088 29.312 62.9421 28.928C62.6861 28.5333 62.5581 28.0853 62.5581 27.584C62.5581 27.008 62.7075 26.5547 63.0061 26.224C63.3048 25.8933 63.7848 25.6587 64.4461 25.52C65.1075 25.3707 65.9875 25.296 67.0861 25.296H67.9661V26.64H67.0861C66.6701 26.64 66.3235 26.672 66.0461 26.736C65.7795 26.7893 65.5821 26.88 65.4541 27.008C65.3261 27.1253 65.2621 27.28 65.2621 27.472C65.2621 27.7173 65.3475 27.92 65.5181 28.08C65.6995 28.24 65.9555 28.32 66.2861 28.32C66.5528 28.32 66.7875 28.2613 66.9901 28.144C67.2035 28.0267 67.3741 27.8667 67.5021 27.664C67.6301 27.4507 67.6941 27.2053 67.6941 26.928V25.072C67.6941 24.688 67.5928 24.416 67.3901 24.256C67.1981 24.096 66.8621 24.016 66.3821 24.016C66.1261 24.016 65.8381 24.048 65.5181 24.112C65.1981 24.1653 64.8408 24.2667 64.4461 24.416C64.1581 24.5227 63.9128 24.5387 63.7101 24.464C63.5075 24.3893 63.3475 24.2613 63.2301 24.08C63.1235 23.8987 63.0701 23.7013 63.0701 23.488C63.0808 23.2747 63.1501 23.072 63.2781 22.88C63.4168 22.688 63.6248 22.5387 63.9021 22.432C64.4141 22.24 64.8835 22.112 65.3101 22.048C65.7475 21.984 66.1475 21.952 66.5101 21.952C67.3848 21.952 68.1048 22.08 68.6701 22.336C69.2461 22.5813 69.6728 22.9653 69.9501 23.488C70.2381 24 70.3821 24.6613 70.3821 25.472V28.704C70.3821 29.1733 70.2701 29.5307 70.0461 29.776C69.8221 30.0213 69.4968 30.144 69.0701 30.144C68.6328 30.144 68.2968 30.0213 68.0621 29.776C67.8381 29.5307 67.7261 29.1733 67.7261 28.704V28.288L67.8221 28.512C67.7688 28.8533 67.6461 29.1467 67.4541 29.392C67.2621 29.6373 67.0115 29.8293 66.7021 29.968C66.3928 30.1067 66.0408 30.176 65.6461 30.176ZM75.3319 30.176C74.5319 30.176 73.8705 30.0533 73.3479 29.808C72.8359 29.5627 72.4519 29.1947 72.1959 28.704C71.9399 28.2027 71.8119 27.5787 71.8119 26.832V24.224H71.2679C70.9265 24.224 70.6599 24.1333 70.4679 23.952C70.2865 23.7707 70.1959 23.5093 70.1959 23.168C70.1959 22.8267 70.2865 22.5707 70.4679 22.4C70.6599 22.2187 70.9265 22.128 71.2679 22.128H71.8119V21.136C71.8119 20.6667 71.9345 20.3093 72.1799 20.064C72.4252 19.8187 72.7772 19.696 73.2359 19.696C73.6945 19.696 74.0465 19.8187 74.2919 20.064C74.5372 20.3093 74.6599 20.6667 74.6599 21.136V22.128H75.9719C76.3239 22.128 76.5905 22.2187 76.7719 22.4C76.9639 22.5707 77.0599 22.8267 77.0599 23.168C77.0599 23.5093 76.9639 23.7707 76.7719 23.952C76.5905 24.1333 76.3239 24.224 75.9719 24.224H74.6599V26.736C74.6599 27.1307 74.7505 27.424 74.9319 27.616C75.1239 27.7973 75.4225 27.888 75.8279 27.888C75.9772 27.888 76.1212 27.872 76.2599 27.84C76.3985 27.808 76.5265 27.792 76.6439 27.792C76.8145 27.7813 76.9532 27.8347 77.0599 27.952C77.1665 28.0587 77.2199 28.3093 77.2199 28.704C77.2199 29.024 77.1719 29.296 77.0759 29.52C76.9799 29.7333 76.8092 29.888 76.5639 29.984C76.4145 30.0373 76.2119 30.08 75.9559 30.112C75.6999 30.1547 75.4919 30.176 75.3319 30.176Z" fill="#20221A"/>
<path d="M91.2865 34.464C90.5905 34.464 90.0025 34.224 89.5225 33.744C89.0425 33.264 88.8025 32.664 88.8025 31.944V29.28L89.8825 30.252C88.2745 30.18 86.8825 29.976 85.7065 29.64C84.5305 29.304 83.5705 28.968 82.8265 28.632C82.2025 28.344 81.7585 27.936 81.4945 27.408C81.2545 26.88 81.1585 26.34 81.2065 25.788C81.2785 25.236 81.4825 24.732 81.8185 24.276C82.1545 23.82 82.5865 23.52 83.1145 23.376C83.6665 23.208 84.3025 23.28 85.0225 23.592C85.5025 23.856 86.2225 24.132 87.1825 24.42C88.1665 24.684 89.3785 24.816 90.8185 24.816C91.8265 24.816 92.6185 24.72 93.1945 24.528C93.7945 24.336 94.2145 24.084 94.4545 23.772C94.7185 23.436 94.8505 23.076 94.8505 22.692C94.8505 22.332 94.7545 22.032 94.5625 21.792C94.3945 21.528 94.1065 21.3 93.6985 21.108C93.2905 20.892 92.7265 20.7 92.0065 20.532L87.9385 19.668C85.7065 19.164 84.0385 18.324 82.9345 17.148C81.8545 15.948 81.3145 14.4 81.3145 12.504C81.3145 11.064 81.6625 9.78 82.3585 8.652C83.0785 7.5 84.0745 6.564 85.3465 5.844C86.6425 5.124 88.1545 4.668 89.8825 4.476L88.8025 5.088V2.676C88.8025 1.956 89.0425 1.356 89.5225 0.875999C90.0025 0.395998 90.5905 0.155998 91.2865 0.155998C92.0065 0.155998 92.6065 0.395998 93.0865 0.875999C93.5665 1.356 93.8065 1.956 93.8065 2.676V5.088L92.7265 4.404C93.6385 4.428 94.6225 4.584 95.6785 4.872C96.7345 5.136 97.6585 5.508 98.4505 5.988C99.0025 6.276 99.3865 6.672 99.6025 7.176C99.8425 7.68 99.9265 8.196 99.8545 8.724C99.8065 9.228 99.6145 9.684 99.2785 10.092C98.9665 10.5 98.5345 10.776 97.9825 10.92C97.4545 11.04 96.8185 10.944 96.0745 10.632C95.5225 10.392 94.8985 10.2 94.2025 10.056C93.5305 9.888 92.6665 9.804 91.6105 9.804C90.3385 9.804 89.3545 10.032 88.6585 10.488C87.9865 10.944 87.6505 11.532 87.6505 12.252C87.6505 12.732 87.8425 13.14 88.2265 13.476C88.6345 13.788 89.3665 14.064 90.4225 14.304L94.5265 15.204C96.8065 15.708 98.4865 16.548 99.5665 17.724C100.67 18.876 101.222 20.376 101.222 22.224C101.222 23.664 100.875 24.936 100.179 26.04C99.4825 27.144 98.5105 28.044 97.2625 28.74C96.0385 29.436 94.6105 29.892 92.9785 30.108L93.8065 29.244V31.944C93.8065 32.664 93.5665 33.264 93.0865 33.744C92.6305 34.224 92.0305 34.464 91.2865 34.464ZM105.6 30C104.712 30 104.028 29.772 103.548 29.316C103.092 28.836 102.864 28.164 102.864 27.3C102.864 26.436 103.092 25.776 103.548 25.32C104.028 24.864 104.712 24.636 105.6 24.636H108.84V9.912H111.864L106.644 13.116C106.02 13.5 105.432 13.656 104.88 13.584C104.328 13.488 103.86 13.248 103.476 12.864C103.092 12.48 102.84 12.012 102.72 11.46C102.6 10.908 102.648 10.356 102.864 9.804C103.08 9.252 103.512 8.784 104.16 8.4L109.128 5.304C109.656 4.968 110.196 4.716 110.748 4.548C111.324 4.38 111.924 4.296 112.548 4.296C113.46 4.296 114.168 4.536 114.672 5.016C115.176 5.472 115.428 6.144 115.428 7.032V24.636H118.308C119.196 24.636 119.868 24.864 120.324 25.32C120.804 25.776 121.044 26.436 121.044 27.3C121.044 28.164 120.804 28.836 120.324 29.316C119.868 29.772 119.196 30 118.308 30H105.6ZM125.53 34.32C125.146 34.848 124.714 35.136 124.234 35.184C123.778 35.256 123.382 35.16 123.046 34.896C122.71 34.656 122.518 34.308 122.47 33.852C122.446 33.42 122.65 32.94 123.082 32.412C123.682 31.716 124.078 31.02 124.27 30.324C124.462 29.628 124.558 29.004 124.558 28.452L124.774 30.216C123.67 30.216 122.782 29.904 122.11 29.28C121.438 28.632 121.102 27.768 121.102 26.688C121.102 25.656 121.414 24.828 122.038 24.204C122.686 23.556 123.55 23.232 124.63 23.232C125.758 23.232 126.634 23.616 127.258 24.384C127.882 25.128 128.194 26.172 128.194 27.516C128.194 28.188 128.122 28.872 127.978 29.568C127.858 30.264 127.606 30.996 127.222 31.764C126.862 32.556 126.298 33.408 125.53 34.32ZM133.395 30C132.507 30 131.823 29.772 131.343 29.316C130.887 28.836 130.659 28.164 130.659 27.3C130.659 26.436 130.887 25.776 131.343 25.32C131.823 24.864 132.507 24.636 133.395 24.636H136.635V9.912H139.659L134.439 13.116C133.815 13.5 133.227 13.656 132.675 13.584C132.123 13.488 131.655 13.248 131.271 12.864C130.887 12.48 130.635 12.012 130.515 11.46C130.395 10.908 130.443 10.356 130.659 9.804C130.875 9.252 131.307 8.784 131.955 8.4L136.923 5.304C137.451 4.968 137.991 4.716 138.543 4.548C139.119 4.38 139.719 4.296 140.343 4.296C141.255 4.296 141.963 4.536 142.467 5.016C142.971 5.472 143.223 6.144 143.223 7.032V24.636H146.103C146.991 24.636 147.663 24.864 148.119 25.32C148.599 25.776 148.839 26.436 148.839 27.3C148.839 28.164 148.599 28.836 148.119 29.316C147.663 29.772 146.991 30 146.103 30H133.395ZM156.097 30.396C155.113 30.396 154.117 30.276 153.109 30.036C152.101 29.796 151.141 29.436 150.229 28.956C149.653 28.668 149.257 28.284 149.041 27.804C148.825 27.3 148.741 26.784 148.789 26.256C148.861 25.704 149.053 25.224 149.365 24.816C149.677 24.384 150.085 24.084 150.589 23.916C151.117 23.748 151.705 23.808 152.353 24.096C153.073 24.432 153.745 24.66 154.369 24.78C154.993 24.9 155.593 24.96 156.169 24.96C157.369 24.96 158.365 24.72 159.157 24.24C159.973 23.736 160.573 22.992 160.957 22.008C161.365 21 161.569 19.752 161.569 18.264V16.392H162.109C161.917 17.4 161.521 18.276 160.921 19.02C160.345 19.764 159.625 20.328 158.761 20.712C157.921 21.096 156.973 21.288 155.917 21.288C154.525 21.288 153.265 20.94 152.137 20.244C151.033 19.524 150.157 18.54 149.509 17.292C148.861 16.02 148.537 14.604 148.537 13.044C148.537 11.316 148.909 9.792 149.653 8.472C150.397 7.152 151.429 6.12 152.749 5.376C154.093 4.608 155.617 4.224 157.321 4.224C159.553 4.224 161.437 4.728 162.973 5.736C164.533 6.744 165.721 8.208 166.537 10.128C167.353 12.024 167.761 14.34 167.761 17.076C167.761 19.164 167.497 21.036 166.969 22.692C166.441 24.348 165.673 25.752 164.665 26.904C163.657 28.032 162.433 28.896 160.993 29.496C159.553 30.096 157.921 30.396 156.097 30.396ZM157.681 16.248C158.305 16.248 158.845 16.104 159.301 15.816C159.781 15.504 160.141 15.096 160.381 14.592C160.645 14.064 160.777 13.452 160.777 12.756C160.777 12.036 160.645 11.412 160.381 10.884C160.141 10.356 159.781 9.96 159.301 9.696C158.845 9.408 158.305 9.264 157.681 9.264C157.057 9.264 156.517 9.408 156.061 9.696C155.605 9.96 155.245 10.356 154.981 10.884C154.717 11.412 154.585 12.036 154.585 12.756C154.585 13.452 154.717 14.064 154.981 14.592C155.245 15.096 155.605 15.504 156.061 15.816C156.517 16.104 157.057 16.248 157.681 16.248ZM178.115 30.396C174.995 30.396 172.595 29.256 170.915 26.976C169.259 24.672 168.431 21.42 168.431 17.22C168.431 14.388 168.803 12.012 169.547 10.092C170.291 8.148 171.383 6.684 172.823 5.7C174.263 4.716 176.027 4.224 178.115 4.224C181.259 4.224 183.659 5.328 185.315 7.536C186.971 9.744 187.799 12.96 187.799 17.184C187.799 19.992 187.427 22.38 186.683 24.348C185.939 26.316 184.847 27.816 183.407 28.848C181.967 29.88 180.203 30.396 178.115 30.396ZM178.115 25.14C179.267 25.14 180.119 24.516 180.671 23.268C181.247 21.996 181.535 19.968 181.535 17.184C181.535 14.424 181.247 12.456 180.671 11.28C180.119 10.08 179.267 9.48 178.115 9.48C176.963 9.48 176.099 10.08 175.523 11.28C174.971 12.456 174.695 14.424 174.695 17.184C174.695 19.968 174.971 21.996 175.523 23.268C176.099 24.516 176.963 25.14 178.115 25.14Z" fill="#A4D961"/>
</svg>
