<svg width="187" height="46" viewBox="0 0 187 46" fill="none" xmlns="http://www.w3.org/2000/svg">
<path d="M4.99413 40.176C4.56746 40.176 4.11946 40.144 3.65013 40.08C3.19146 40.0267 2.75413 39.9413 2.33813 39.824C1.92213 39.7067 1.54879 39.568 1.21813 39.408C0.930125 39.2693 0.727458 39.088 0.610125 38.864C0.492792 38.6293 0.450125 38.384 0.482125 38.128C0.514125 37.872 0.604792 37.648 0.754125 37.456C0.903458 37.2533 1.10079 37.12 1.34613 37.056C1.59146 36.9813 1.86879 37.0133 2.17813 37.152C2.58346 37.344 3.04213 37.4933 3.55413 37.6C4.06613 37.7067 4.54613 37.76 4.99413 37.76C5.69813 37.76 6.18879 37.6693 6.46613 37.488C6.75413 37.296 6.89813 37.0613 6.89813 36.784C6.89813 36.5387 6.79679 36.3413 6.59413 36.192C6.40213 36.0427 6.05546 35.9147 5.55413 35.808L3.68213 35.408C2.65813 35.1947 1.89546 34.8213 1.39413 34.288C0.892792 33.7547 0.642125 33.0667 0.642125 32.224C0.642125 31.6693 0.754125 31.168 0.978125 30.72C1.21279 30.2613 1.53813 29.872 1.95413 29.552C2.38079 29.232 2.88213 28.9867 3.45813 28.816C4.04479 28.6347 4.69546 28.544 5.41013 28.544C5.96479 28.544 6.52479 28.608 7.09013 28.736C7.66613 28.8533 8.16213 29.0347 8.57813 29.28C8.82346 29.408 8.99946 29.584 9.10613 29.808C9.21279 30.032 9.25546 30.2667 9.23413 30.512C9.21279 30.7467 9.12746 30.9547 8.97813 31.136C8.83946 31.3173 8.64746 31.44 8.40213 31.504C8.16746 31.5573 7.88479 31.5147 7.55413 31.376C7.24479 31.2373 6.89279 31.136 6.49813 31.072C6.11413 30.9973 5.74079 30.96 5.37813 30.96C4.98346 30.96 4.64746 31.008 4.37013 31.104C4.09279 31.1893 3.87946 31.3173 3.73013 31.488C3.59146 31.6587 3.52213 31.856 3.52213 32.08C3.52213 32.304 3.61279 32.496 3.79413 32.656C3.98613 32.8053 4.33279 32.9333 4.83413 33.04L6.69013 33.44C7.72479 33.664 8.49813 34.032 9.01013 34.544C9.52213 35.056 9.77813 35.7227 9.77813 36.544C9.77813 37.0987 9.66613 37.6 9.44213 38.048C9.21813 38.496 8.89813 38.88 8.48213 39.2C8.06613 39.5093 7.56479 39.7493 6.97813 39.92C6.39146 40.0907 5.73013 40.176 4.99413 40.176ZM14.235 40.176C13.435 40.176 12.7737 40.0533 12.251 39.808C11.739 39.5627 11.355 39.1947 11.099 38.704C10.843 38.2027 10.715 37.5787 10.715 36.832V34.224H10.171C9.82967 34.224 9.563 34.1333 9.371 33.952C9.18967 33.7707 9.099 33.5093 9.099 33.168C9.099 32.8267 9.18967 32.5707 9.371 32.4C9.563 32.2187 9.82967 32.128 10.171 32.128H10.715V31.136C10.715 30.6667 10.8377 30.3093 11.083 30.064C11.3283 29.8187 11.6803 29.696 12.139 29.696C12.5977 29.696 12.9497 29.8187 13.195 30.064C13.4403 30.3093 13.563 30.6667 13.563 31.136V32.128H14.875C15.227 32.128 15.4937 32.2187 15.675 32.4C15.867 32.5707 15.963 32.8267 15.963 33.168C15.963 33.5093 15.867 33.7707 15.675 33.952C15.4937 34.1333 15.227 34.224 14.875 34.224H13.563V36.736C13.563 37.1307 13.6537 37.424 13.835 37.616C14.027 37.7973 14.3257 37.888 14.731 37.888C14.8803 37.888 15.0243 37.872 15.163 37.84C15.3017 37.808 15.4297 37.792 15.547 37.792C15.7177 37.7813 15.8563 37.8347 15.963 37.952C16.0697 38.0587 16.123 38.3093 16.123 38.704C16.123 39.024 16.075 39.296 15.979 39.52C15.883 39.7333 15.7123 39.888 15.467 39.984C15.3177 40.0373 15.115 40.08 14.859 40.112C14.603 40.1547 14.395 40.176 14.235 40.176ZM18.8555 40.176C18.2475 40.176 17.7088 40.064 17.2395 39.84C16.7808 39.616 16.4182 39.312 16.1515 38.928C15.8955 38.5333 15.7675 38.0853 15.7675 37.584C15.7675 37.008 15.9168 36.5547 16.2155 36.224C16.5142 35.8933 16.9942 35.6587 17.6555 35.52C18.3168 35.3707 19.1968 35.296 20.2955 35.296H21.1755V36.64H20.2955C19.8795 36.64 19.5328 36.672 19.2555 36.736C18.9888 36.7893 18.7915 36.88 18.6635 37.008C18.5355 37.1253 18.4715 37.28 18.4715 37.472C18.4715 37.7173 18.5568 37.92 18.7275 38.08C18.9088 38.24 19.1648 38.32 19.4955 38.32C19.7622 38.32 19.9968 38.2613 20.1995 38.144C20.4128 38.0267 20.5835 37.8667 20.7115 37.664C20.8395 37.4507 20.9035 37.2053 20.9035 36.928V35.072C20.9035 34.688 20.8022 34.416 20.5995 34.256C20.4075 34.096 20.0715 34.016 19.5915 34.016C19.3355 34.016 19.0475 34.048 18.7275 34.112C18.4075 34.1653 18.0502 34.2667 17.6555 34.416C17.3675 34.5227 17.1222 34.5387 16.9195 34.464C16.7168 34.3893 16.5568 34.2613 16.4395 34.08C16.3328 33.8987 16.2795 33.7013 16.2795 33.488C16.2902 33.2747 16.3595 33.072 16.4875 32.88C16.6262 32.688 16.8342 32.5387 17.1115 32.432C17.6235 32.24 18.0928 32.112 18.5195 32.048C18.9568 31.984 19.3568 31.952 19.7195 31.952C20.5942 31.952 21.3142 32.08 21.8795 32.336C22.4555 32.5813 22.8822 32.9653 23.1595 33.488C23.4475 34 23.5915 34.6613 23.5915 35.472V38.704C23.5915 39.1733 23.4795 39.5307 23.2555 39.776C23.0315 40.0213 22.7062 40.144 22.2795 40.144C21.8422 40.144 21.5062 40.0213 21.2715 39.776C21.0475 39.5307 20.9355 39.1733 20.9355 38.704V38.288L21.0315 38.512C20.9782 38.8533 20.8555 39.1467 20.6635 39.392C20.4715 39.6373 20.2208 39.8293 19.9115 39.968C19.6022 40.1067 19.2502 40.176 18.8555 40.176ZM25.8692 40.144C25.3999 40.144 25.0372 40.0213 24.7812 39.776C24.5359 39.5307 24.4132 39.1733 24.4132 38.704V33.408C24.4132 32.9493 24.5306 32.5973 24.7652 32.352C25.0106 32.1067 25.3572 31.984 25.8052 31.984C26.2532 31.984 26.5946 32.1067 26.8292 32.352C27.0639 32.5973 27.1812 32.9493 27.1812 33.408V34.064H27.0212C27.1279 33.424 27.3999 32.9173 27.8372 32.544C28.2852 32.1707 28.8399 31.9733 29.5012 31.952C29.8106 31.9413 30.0399 32.0213 30.1892 32.192C30.3492 32.352 30.4346 32.656 30.4452 33.104C30.4452 33.488 30.3652 33.792 30.2052 34.016C30.0452 34.24 29.7412 34.3733 29.2932 34.416L28.9252 34.448C28.3599 34.5013 27.9492 34.6613 27.6932 34.928C27.4372 35.184 27.3092 35.568 27.3092 36.08V38.704C27.3092 39.1733 27.1866 39.5307 26.9412 39.776C26.6959 40.0213 26.3386 40.144 25.8692 40.144ZM35.1475 40.176C34.3475 40.176 33.6862 40.0533 33.1635 39.808C32.6515 39.5627 32.2675 39.1947 32.0115 38.704C31.7555 38.2027 31.6275 37.5787 31.6275 36.832V34.224H31.0835C30.7422 34.224 30.4755 34.1333 30.2835 33.952C30.1022 33.7707 30.0115 33.5093 30.0115 33.168C30.0115 32.8267 30.1022 32.5707 30.2835 32.4C30.4755 32.2187 30.7422 32.128 31.0835 32.128H31.6275V31.136C31.6275 30.6667 31.7502 30.3093 31.9955 30.064C32.2408 29.8187 32.5928 29.696 33.0515 29.696C33.5102 29.696 33.8622 29.8187 34.1075 30.064C34.3528 30.3093 34.4755 30.6667 34.4755 31.136V32.128H35.7875C36.1395 32.128 36.4062 32.2187 36.5875 32.4C36.7795 32.5707 36.8755 32.8267 36.8755 33.168C36.8755 33.5093 36.7795 33.7707 36.5875 33.952C36.4062 34.1333 36.1395 34.224 35.7875 34.224H34.4755V36.736C34.4755 37.1307 34.5662 37.424 34.7475 37.616C34.9395 37.7973 35.2382 37.888 35.6435 37.888C35.7928 37.888 35.9368 37.872 36.0755 37.84C36.2142 37.808 36.3422 37.792 36.4595 37.792C36.6302 37.7813 36.7688 37.8347 36.8755 37.952C36.9822 38.0587 37.0355 38.3093 37.0355 38.704C37.0355 39.024 36.9875 39.296 36.8915 39.52C36.7955 39.7333 36.6248 39.888 36.3795 39.984C36.2302 40.0373 36.0275 40.08 35.7715 40.112C35.5155 40.1547 35.3075 40.176 35.1475 40.176ZM38.7213 40.144C38.2733 40.144 37.9266 40.0107 37.6813 39.744C37.4359 39.4773 37.3133 39.0933 37.3133 38.592V33.536C37.3133 33.0347 37.4359 32.6507 37.6813 32.384C37.9266 32.1173 38.2733 31.984 38.7213 31.984C39.1799 31.984 39.5319 32.1173 39.7773 32.384C40.0333 32.6507 40.1613 33.0347 40.1613 33.536V38.592C40.1613 39.0933 40.0386 39.4773 39.7933 39.744C39.5479 40.0107 39.1906 40.144 38.7213 40.144ZM38.7213 30.848C38.2199 30.848 37.8306 30.7307 37.5533 30.496C37.2866 30.2613 37.1533 29.92 37.1533 29.472C37.1533 29.0347 37.2866 28.6987 37.5533 28.464C37.8306 28.2293 38.2199 28.112 38.7213 28.112C39.2439 28.112 39.6386 28.2293 39.9053 28.464C40.1719 28.6987 40.3053 29.0347 40.3053 29.472C40.3053 29.92 40.1719 30.2613 39.9053 30.496C39.6386 30.7307 39.2439 30.848 38.7213 30.848ZM42.4213 40.144C41.9733 40.144 41.6266 40.0213 41.3813 39.776C41.1359 39.5307 41.0133 39.1733 41.0133 38.704V33.408C41.0133 32.9493 41.1306 32.5973 41.3653 32.352C41.6106 32.1067 41.9573 31.984 42.4053 31.984C42.8533 31.984 43.1946 32.1067 43.4293 32.352C43.6639 32.5973 43.7813 32.9493 43.7813 33.408V34.16L43.6053 33.504C43.8613 33.0027 44.2239 32.6187 44.6933 32.352C45.1733 32.0853 45.7173 31.952 46.3253 31.952C46.9546 31.952 47.4719 32.0747 47.8773 32.32C48.2826 32.5547 48.5866 32.928 48.7893 33.44C48.9919 33.9413 49.0933 34.576 49.0933 35.344V38.704C49.0933 39.1733 48.9706 39.5307 48.7253 39.776C48.4799 40.0213 48.1279 40.144 47.6693 40.144C47.2106 40.144 46.8586 40.0213 46.6133 39.776C46.3679 39.5307 46.2453 39.1733 46.2453 38.704V35.456C46.2453 34.976 46.1599 34.6347 45.9893 34.432C45.8293 34.2293 45.5893 34.128 45.2693 34.128C44.8426 34.128 44.5013 34.2667 44.2453 34.544C43.9893 34.8107 43.8613 35.1733 43.8613 35.632V38.704C43.8613 39.664 43.3813 40.144 42.4213 40.144ZM53.8204 43.056C53.2337 43.056 52.6844 43.0133 52.1724 42.928C51.6604 42.8533 51.2177 42.7413 50.8444 42.592C50.535 42.4853 50.3164 42.3307 50.1884 42.128C50.0604 41.9253 50.0017 41.712 50.0124 41.488C50.023 41.264 50.0817 41.0613 50.1884 40.88C50.3057 40.6987 50.4604 40.5653 50.6524 40.48C50.8444 40.4053 51.0577 40.4107 51.2924 40.496C51.7617 40.688 52.1884 40.8107 52.5724 40.864C52.9564 40.928 53.2817 40.96 53.5484 40.96C54.199 40.96 54.6844 40.8213 55.0044 40.544C55.335 40.2773 55.5004 39.856 55.5004 39.28V38.272H55.6284C55.4684 38.72 55.143 39.088 54.6524 39.376C54.1617 39.6533 53.6284 39.792 53.0524 39.792C52.3484 39.792 51.735 39.632 51.2124 39.312C50.6897 38.9813 50.279 38.5227 49.9804 37.936C49.6924 37.3493 49.5484 36.6613 49.5484 35.872C49.5484 35.2747 49.6337 34.736 49.8044 34.256C49.975 33.776 50.2097 33.3653 50.5084 33.024C50.8177 32.6827 51.1857 32.4213 51.6124 32.24C52.0497 32.048 52.5297 31.952 53.0524 31.952C53.6497 31.952 54.183 32.0907 54.6524 32.368C55.1324 32.6453 55.4524 33.008 55.6124 33.456L55.4524 34.112V33.408C55.4524 32.9493 55.575 32.5973 55.8204 32.352C56.0764 32.1067 56.4284 31.984 56.8764 31.984C57.3244 31.984 57.6657 32.1067 57.9004 32.352C58.1457 32.5973 58.2684 32.9493 58.2684 33.408V38.944C58.2684 40.3093 57.8844 41.3333 57.1164 42.016C56.3484 42.7093 55.2497 43.056 53.8204 43.056ZM53.9324 37.696C54.2524 37.696 54.5244 37.6267 54.7484 37.488C54.9724 37.3387 55.1484 37.1307 55.2764 36.864C55.4044 36.5867 55.4684 36.256 55.4684 35.872C55.4684 35.296 55.3297 34.848 55.0524 34.528C54.775 34.208 54.4017 34.048 53.9324 34.048C53.6337 34.048 53.367 34.1227 53.1324 34.272C52.8977 34.4107 52.7164 34.6187 52.5884 34.896C52.471 35.1627 52.4124 35.488 52.4124 35.872C52.4124 36.448 52.551 36.896 52.8284 37.216C53.1057 37.536 53.4737 37.696 53.9324 37.696ZM65.6461 40.176C65.0381 40.176 64.4995 40.064 64.0301 39.84C63.5715 39.616 63.2088 39.312 62.9421 38.928C62.6861 38.5333 62.5581 38.0853 62.5581 37.584C62.5581 37.008 62.7075 36.5547 63.0061 36.224C63.3048 35.8933 63.7848 35.6587 64.4461 35.52C65.1075 35.3707 65.9875 35.296 67.0861 35.296H67.9661V36.64H67.0861C66.6701 36.64 66.3235 36.672 66.0461 36.736C65.7795 36.7893 65.5821 36.88 65.4541 37.008C65.3261 37.1253 65.2621 37.28 65.2621 37.472C65.2621 37.7173 65.3475 37.92 65.5181 38.08C65.6995 38.24 65.9555 38.32 66.2861 38.32C66.5528 38.32 66.7875 38.2613 66.9901 38.144C67.2035 38.0267 67.3741 37.8667 67.5021 37.664C67.6301 37.4507 67.6941 37.2053 67.6941 36.928V35.072C67.6941 34.688 67.5928 34.416 67.3901 34.256C67.1981 34.096 66.8621 34.016 66.3821 34.016C66.1261 34.016 65.8381 34.048 65.5181 34.112C65.1981 34.1653 64.8408 34.2667 64.4461 34.416C64.1581 34.5227 63.9128 34.5387 63.7101 34.464C63.5075 34.3893 63.3475 34.2613 63.2301 34.08C63.1235 33.8987 63.0701 33.7013 63.0701 33.488C63.0808 33.2747 63.1501 33.072 63.2781 32.88C63.4168 32.688 63.6248 32.5387 63.9021 32.432C64.4141 32.24 64.8835 32.112 65.3101 32.048C65.7475 31.984 66.1475 31.952 66.5101 31.952C67.3848 31.952 68.1048 32.08 68.6701 32.336C69.2461 32.5813 69.6728 32.9653 69.9501 33.488C70.2381 34 70.3821 34.6613 70.3821 35.472V38.704C70.3821 39.1733 70.2701 39.5307 70.0461 39.776C69.8221 40.0213 69.4968 40.144 69.0701 40.144C68.6328 40.144 68.2968 40.0213 68.0621 39.776C67.8381 39.5307 67.7261 39.1733 67.7261 38.704V38.288L67.8221 38.512C67.7688 38.8533 67.6461 39.1467 67.4541 39.392C67.2621 39.6373 67.0115 39.8293 66.7021 39.968C66.3928 40.1067 66.0408 40.176 65.6461 40.176ZM75.3319 40.176C74.5319 40.176 73.8705 40.0533 73.3479 39.808C72.8359 39.5627 72.4519 39.1947 72.1959 38.704C71.9399 38.2027 71.8119 37.5787 71.8119 36.832V34.224H71.2679C70.9265 34.224 70.6599 34.1333 70.4679 33.952C70.2865 33.7707 70.1959 33.5093 70.1959 33.168C70.1959 32.8267 70.2865 32.5707 70.4679 32.4C70.6599 32.2187 70.9265 32.128 71.2679 32.128H71.8119V31.136C71.8119 30.6667 71.9345 30.3093 72.1799 30.064C72.4252 29.8187 72.7772 29.696 73.2359 29.696C73.6945 29.696 74.0465 29.8187 74.2919 30.064C74.5372 30.3093 74.6599 30.6667 74.6599 31.136V32.128H75.9719C76.3239 32.128 76.5905 32.2187 76.7719 32.4C76.9639 32.5707 77.0599 32.8267 77.0599 33.168C77.0599 33.5093 76.9639 33.7707 76.7719 33.952C76.5905 34.1333 76.3239 34.224 75.9719 34.224H74.6599V36.736C74.6599 37.1307 74.7505 37.424 74.9319 37.616C75.1239 37.7973 75.4225 37.888 75.8279 37.888C75.9772 37.888 76.1212 37.872 76.2599 37.84C76.3985 37.808 76.5265 37.792 76.6439 37.792C76.8145 37.7813 76.9532 37.8347 77.0599 37.952C77.1665 38.0587 77.2199 38.3093 77.2199 38.704C77.2199 39.024 77.1719 39.296 77.0759 39.52C76.9799 39.7333 76.8092 39.888 76.5639 39.984C76.4145 40.0373 76.2119 40.08 75.9559 40.112C75.6999 40.1547 75.4919 40.176 75.3319 40.176Z" fill="#20221A"/>
<path d="M94.9945 45.952C94.0665 45.952 93.2825 45.632 92.6425 44.992C92.0025 44.352 91.6825 43.552 91.6825 42.592V39.04L93.1225 40.336C90.9785 40.24 89.1225 39.968 87.5545 39.52C85.9865 39.072 84.7065 38.624 83.7145 38.176C82.8825 37.792 82.2905 37.248 81.9385 36.544C81.6185 35.84 81.4905 35.12 81.5545 34.384C81.6505 33.648 81.9225 32.976 82.3705 32.368C82.8185 31.76 83.3945 31.36 84.0985 31.168C84.8345 30.944 85.6825 31.04 86.6425 31.456C87.2825 31.808 88.2425 32.176 89.5225 32.56C90.8345 32.912 92.4505 33.088 94.3705 33.088C95.7145 33.088 96.7705 32.96 97.5385 32.704C98.3385 32.448 98.8985 32.112 99.2185 31.696C99.5705 31.248 99.7465 30.768 99.7465 30.256C99.7465 29.776 99.6185 29.376 99.3625 29.056C99.1385 28.704 98.7545 28.4 98.2105 28.144C97.6665 27.856 96.9145 27.6 95.9545 27.376L90.5305 26.224C87.5545 25.552 85.3305 24.432 83.8585 22.864C82.4185 21.264 81.6985 19.2 81.6985 16.672C81.6985 14.752 82.1625 13.04 83.0905 11.536C84.0505 10 85.3785 8.752 87.0745 7.792C88.8025 6.832 90.8185 6.224 93.1225 5.968L91.6825 6.784V3.568C91.6825 2.608 92.0025 1.808 92.6425 1.168C93.2825 0.527998 94.0665 0.207997 94.9945 0.207997C95.9545 0.207997 96.7545 0.527998 97.3945 1.168C98.0345 1.808 98.3545 2.608 98.3545 3.568V6.784L96.9145 5.872C98.1305 5.904 99.4425 6.112 100.85 6.496C102.258 6.848 103.49 7.344 104.546 7.984C105.282 8.368 105.794 8.896 106.082 9.568C106.402 10.24 106.514 10.928 106.419 11.632C106.354 12.304 106.098 12.912 105.65 13.456C105.234 14 104.658 14.368 103.923 14.56C103.218 14.72 102.37 14.592 101.378 14.176C100.642 13.856 99.8105 13.6 98.8825 13.408C97.9865 13.184 96.8345 13.072 95.4265 13.072C93.7305 13.072 92.4185 13.376 91.4905 13.984C90.5945 14.592 90.1465 15.376 90.1465 16.336C90.1465 16.976 90.4025 17.52 90.9145 17.968C91.4585 18.384 92.4345 18.752 93.8425 19.072L99.3145 20.272C102.354 20.944 104.594 22.064 106.035 23.632C107.507 25.168 108.243 27.168 108.243 29.632C108.243 31.552 107.779 33.248 106.851 34.72C105.922 36.192 104.626 37.392 102.962 38.32C101.33 39.248 99.4265 39.856 97.2505 40.144L98.3545 38.992V42.592C98.3545 43.552 98.0345 44.352 97.3945 44.992C96.7865 45.632 95.9865 45.952 94.9945 45.952ZM114.08 40C112.896 40 111.984 39.696 111.344 39.088C110.736 38.448 110.432 37.552 110.432 36.4C110.432 35.248 110.736 34.368 111.344 33.76C111.984 33.152 112.896 32.848 114.08 32.848H118.4V13.216H122.432L115.472 17.488C114.64 18 113.856 18.208 113.12 18.112C112.384 17.984 111.76 17.664 111.248 17.152C110.736 16.64 110.4 16.016 110.24 15.28C110.08 14.544 110.144 13.808 110.432 13.072C110.72 12.336 111.296 11.712 112.16 11.2L118.784 7.072C119.488 6.624 120.208 6.288 120.944 6.064C121.712 5.84 122.512 5.728 123.344 5.728C124.56 5.728 125.504 6.048 126.176 6.688C126.848 7.296 127.184 8.192 127.184 9.376V32.848H131.024C132.208 32.848 133.104 33.152 133.712 33.76C134.352 34.368 134.672 35.248 134.672 36.4C134.672 37.552 134.352 38.448 133.712 39.088C133.104 39.696 132.208 40 131.024 40H114.08ZM147.325 40.528C144.605 40.528 142.253 40.144 140.269 39.376C138.285 38.576 136.765 37.44 135.709 35.968C134.653 34.496 134.125 32.752 134.125 30.736C134.125 29.104 134.445 27.664 135.085 26.416C135.757 25.168 136.669 24.16 137.821 23.392C138.973 22.592 140.285 22.112 141.757 21.952V23.344C139.773 22.928 138.157 21.952 136.909 20.416C135.661 18.88 135.037 17.04 135.037 14.896C135.037 12.944 135.533 11.28 136.525 9.904C137.517 8.528 138.941 7.472 140.797 6.736C142.653 6 144.829 5.632 147.325 5.632C149.853 5.632 152.029 6 153.853 6.736C155.709 7.472 157.133 8.528 158.125 9.904C159.117 11.28 159.613 12.944 159.613 14.896C159.613 16.336 159.325 17.664 158.749 18.88C158.205 20.064 157.437 21.04 156.445 21.808C155.485 22.576 154.365 23.072 153.085 23.296V21.952C155.261 22.272 157.037 23.232 158.413 24.832C159.821 26.4 160.525 28.368 160.525 30.736C160.525 32.752 159.997 34.496 158.941 35.968C157.885 37.44 156.365 38.576 154.381 39.376C152.429 40.144 150.077 40.528 147.325 40.528ZM147.325 33.904C149.021 33.904 150.317 33.584 151.213 32.944C152.109 32.272 152.557 31.312 152.557 30.064C152.557 28.784 152.109 27.824 151.213 27.184C150.317 26.544 149.021 26.224 147.325 26.224C145.629 26.224 144.333 26.544 143.437 27.184C142.541 27.824 142.093 28.784 142.093 30.064C142.093 31.312 142.541 32.272 143.437 32.944C144.333 33.584 145.629 33.904 147.325 33.904ZM147.325 19.552C148.253 19.552 149.037 19.408 149.677 19.12C150.317 18.832 150.797 18.416 151.117 17.872C151.469 17.296 151.645 16.64 151.645 15.904C151.645 14.784 151.261 13.904 150.493 13.264C149.725 12.592 148.669 12.256 147.325 12.256C145.981 12.256 144.925 12.592 144.157 13.264C143.421 13.904 143.053 14.784 143.053 15.904C143.053 17.024 143.421 17.92 144.157 18.592C144.925 19.232 145.981 19.552 147.325 19.552ZM173.706 40.528C169.546 40.528 166.346 39.008 164.106 35.968C161.898 32.896 160.794 28.56 160.794 22.96C160.794 19.184 161.29 16.016 162.282 13.456C163.274 10.864 164.73 8.912 166.65 7.6C168.57 6.288 170.922 5.632 173.706 5.632C177.898 5.632 181.098 7.104 183.306 10.048C185.514 12.992 186.618 17.28 186.618 22.912C186.618 26.656 186.122 29.84 185.13 32.464C184.138 35.088 182.682 37.088 180.762 38.464C178.842 39.84 176.49 40.528 173.706 40.528ZM173.706 33.52C175.242 33.52 176.378 32.688 177.114 31.024C177.882 29.328 178.266 26.624 178.266 22.912C178.266 19.232 177.882 16.608 177.114 15.04C176.378 13.44 175.242 12.64 173.706 12.64C172.17 12.64 171.018 13.44 170.25 15.04C169.514 16.608 169.146 19.232 169.146 22.912C169.146 26.624 169.514 29.328 170.25 31.024C171.018 32.688 172.17 33.52 173.706 33.52Z" fill="#A4D961"/>
</svg>
