<svg width="100" height="100" viewBox="0 0 100 100" fill="none" xmlns="http://www.w3.org/2000/svg">
<path d="M100 50C100 77.6142 77.6142 100 50 100C22.3858 100 0 77.6142 0 50C0 22.3858 22.3858 0 50 0C77.6142 0 100 22.3858 100 50Z" fill="#EFF3ED"/>
<path d="M36.2917 76.25C34.4444 76.25 32.8646 75.5811 31.5521 74.2433C30.2396 72.9056 29.5833 71.314 29.5833 69.4688V42.4167L24.2604 29.5833H17.9167V23.75H28.1979L33.0104 35.4167H76.1042C77.2222 35.4167 78.0729 35.8785 78.6562 36.8021C79.2396 37.7257 79.2639 38.6736 78.7292 39.6458L70.4167 55.9062C72.8958 56.2951 74.9744 57.4375 76.6525 59.3333C78.3306 61.2292 79.1686 63.4653 79.1667 66.0417C79.1667 68.8611 78.1828 71.2674 76.215 73.2604C74.2472 75.2535 71.8517 76.25 69.0283 76.25C66.1603 76.25 63.7424 75.2535 61.7746 73.2604C59.8068 71.2674 58.8229 68.8611 58.8229 66.0417C58.8229 65.0695 58.9444 64.1701 59.1875 63.3438C59.4306 62.5174 59.7708 61.7153 60.2083 60.9375L50.6563 60.0625L41.9063 73.1875C41.2743 74.1597 40.4596 74.9132 39.4621 75.4479C38.4646 75.9826 37.4078 76.25 36.2917 76.25ZM36.3646 70.3438C36.4618 70.3438 36.6806 70.2222 37.0208 69.9792L44.0938 59.4792C41.7118 59.2361 39.8403 58.6654 38.4792 57.7671C37.1181 56.8688 36.0972 55.9325 35.4167 54.9583V69.5417C35.4167 69.7847 35.5139 69.9792 35.7083 70.125C35.9028 70.2708 36.1215 70.3438 36.3646 70.3438ZM68.9583 70.4167C70.2222 70.4167 71.2674 69.9908 72.0938 69.1392C72.9201 68.2875 73.3333 67.255 73.3333 66.0417C73.3333 64.7778 72.9201 63.7326 72.0938 62.9062C71.2674 62.0799 70.2222 61.6667 68.9583 61.6667C67.7431 61.6667 66.7096 62.0799 65.8579 62.9062C65.0062 63.7326 64.5814 64.7778 64.5833 66.0417C64.5833 67.257 65.0092 68.2904 65.8608 69.1421C66.7125 69.9938 67.745 70.4186 68.9583 70.4167Z" fill="#20221A"/>
</svg>
