<svg width="1920" height="78" viewBox="0 0 1920 78" fill="none" xmlns="http://www.w3.org/2000/svg">
<path fill-rule="evenodd" clip-rule="evenodd" d="M0 78H32C64 78 128 78 192 68.7143C256 59.4286 320 40.8571 384 37.1429C448 33.4286 512 44.5714 576 52C640 59.4286 704 63.1429 768 55.7143C832 48.2857 896 29.7143 960 24.1429C1024 18.5714 1088 26 1152 40.8571C1216 55.7143 1280 78 1344 74.2857C1408 70.5714 1472 40.8571 1536 37.1429C1600 33.4286 1664 55.7143 1728 63.1429C1792 70.5714 1856 63.1429 1888 59.4286L1920 55.7143V9.29832e-06H1888C1856 9.29832e-06 1792 9.29832e-06 1728 9.29832e-06C1664 9.29832e-06 1600 9.29832e-06 1536 9.29832e-06C1472 9.29832e-06 1408 9.29832e-06 1344 9.29832e-06C1280 9.29832e-06 1216 9.29832e-06 1152 9.29832e-06C1088 9.29832e-06 1024 9.29832e-06 960 9.29832e-06C896 9.29832e-06 832 9.29832e-06 768 9.29832e-06C704 9.29832e-06 640 9.29832e-06 576 9.29832e-06C512 9.29832e-06 448 9.29832e-06 384 9.29832e-06C320 9.29832e-06 256 9.29832e-06 192 9.29832e-06C128 9.29832e-06 64 9.29832e-06 32 9.29832e-06H0L0 78Z" fill="#F7FFF3" fill-opacity="0.47"/>
</svg>
