<svg width="1920" height="109" viewBox="0 0 1920 109" fill="none" xmlns="http://www.w3.org/2000/svg">
<path fill-rule="evenodd" clip-rule="evenodd" d="M1920 109H1888C1856 109 1792 109 1728 96.0238C1664 83.0476 1600 57.0952 1536 51.9048C1472 46.7143 1408 62.2857 1344 72.6667C1280 83.0476 1216 88.2381 1152 77.8571C1088 67.4762 1024 41.5238 960 33.7381C896 25.9524 832 36.3333 768 57.0952C704 77.8571 640 109 576 103.81C512 98.619 448 57.0952 384 51.9048C320 46.7143 256 77.8571 192 88.2381C128 98.619 64 88.2381 32 83.0476L0 77.8571V0L32 0C64 0 128 0 192 0C256 0 320 0 384 0C448 0 512 0 576 0C640 0 704 0 768 0C832 0 896 0 960 0C1024 0 1088 0 1152 0C1216 0 1280 0 1344 0C1408 0 1472 0 1536 0C1600 0 1664 0 1728 0C1792 0 1856 0 1888 0H1920V109Z" fill="#E8EBE7"/>
</svg>
