<svg width="1920" height="78" viewBox="0 0 1920 78" fill="none" xmlns="http://www.w3.org/2000/svg">
<path fill-rule="evenodd" clip-rule="evenodd" d="M1920 0H1888C1856 0 1792 0 1728 9.28571C1664 18.5714 1600 37.1429 1536 40.8571C1472 44.5714 1408 33.4286 1344 26C1280 18.5714 1216 14.8571 1152 22.2857C1088 29.7143 1024 48.2857 960 53.8571C896 59.4286 832 52 768 37.1429C704 22.2857 640 0 576 3.71429C512 7.42857 448 37.1429 384 40.8571C320 44.5714 256 22.2857 192 14.8571C128 7.42857 64 14.8571 32 18.5714L-2.86102e-05 22.2857V78H32C64 78 128 78 192 78C256 78 320 78 384 78C448 78 512 78 576 78C640 78 704 78 768 78C832 78 896 78 960 78C1024 78 1088 78 1152 78C1216 78 1280 78 1344 78C1408 78 1472 78 1536 78C1600 78 1664 78 1728 78C1792 78 1856 78 1888 78H1920V0Z" fill="#F7FFF3" fill-opacity="0.47"/>
</svg>
