<svg width="1920" height="109" viewBox="0 0 1920 109" fill="none" xmlns="http://www.w3.org/2000/svg">
<path fill-rule="evenodd" clip-rule="evenodd" d="M0 0H32C64 0 128 0 192 12.9762C256 25.9524 320 51.9048 384 57.0952C448 62.2857 512 46.7143 576 36.3333C640 25.9524 704 20.7619 768 31.1429C832 41.5238 896 67.4762 960 75.2619C1024 83.0476 1088 72.6667 1152 51.9048C1216 31.1429 1280 0 1344 5.19048C1408 10.381 1472 51.9048 1536 57.0952C1600 62.2857 1664 31.1429 1728 20.7619C1792 10.381 1856 20.7619 1888 25.9524L1920 31.1429V109H1888C1856 109 1792 109 1728 109C1664 109 1600 109 1536 109C1472 109 1408 109 1344 109C1280 109 1216 109 1152 109C1088 109 1024 109 960 109C896 109 832 109 768 109C704 109 640 109 576 109C512 109 448 109 384 109C320 109 256 109 192 109C128 109 64 109 32 109H0V0Z" fill="#F7FFF3"/>
</svg>
