<svg width="180" height="24" viewBox="0 0 180 24" fill="none" xmlns="http://www.w3.org/2000/svg">
<path d="M12.568 23.352C9.98667 23.352 7.78933 22.872 5.976 21.912C4.184 20.952 2.81867 19.608 1.88 17.88C0.941333 16.152 0.472 14.136 0.472 11.832C0.472 9.44267 0.962667 7.37333 1.944 5.624C2.94667 3.85333 4.376 2.488 6.232 1.528C8.088 0.568 10.328 0.0879993 12.952 0.0879993C14.5307 0.0879993 16.0347 0.301332 17.464 0.727999C18.8933 1.13333 20.056 1.688 20.952 2.392L19.16 6.936C18.1787 6.296 17.1867 5.83733 16.184 5.56C15.1813 5.26133 14.1147 5.112 12.984 5.112C10.8293 5.112 9.21867 5.688 8.152 6.84C7.10667 7.992 6.584 9.656 6.584 11.832C6.584 14.008 7.11733 15.6507 8.184 16.76C9.25067 17.8693 10.8293 18.424 12.92 18.424C13.9013 18.424 15 18.2747 16.216 17.976V14.424H11.704V10.296H21.016V21.624C19.8213 22.1787 18.488 22.6053 17.016 22.904C15.544 23.2027 14.0613 23.352 12.568 23.352ZM28.4422 23.352C27.2262 23.352 26.1489 23.128 25.2102 22.68C24.2929 22.232 23.5676 21.624 23.0342 20.856C22.5222 20.0667 22.2662 19.1707 22.2662 18.168C22.2662 17.0373 22.5649 16.1413 23.1622 15.48C23.7596 14.7973 24.7196 14.3173 26.0422 14.04C27.3649 13.7413 29.1249 13.592 31.3223 13.592H32.5382V13.144C32.5382 12.376 32.3356 11.832 31.9303 11.512C31.5463 11.192 30.8743 11.032 29.9143 11.032C29.1036 11.032 28.2076 11.16 27.2262 11.416C26.2449 11.672 25.2849 12.0667 24.3462 12.6L22.9062 8.856C23.4396 8.472 24.1222 8.13067 24.9542 7.832C25.7862 7.53333 26.6609 7.30933 27.5782 7.16C28.4956 6.98933 29.3596 6.904 30.1702 6.904C32.7942 6.904 34.7356 7.46933 35.9943 8.6C37.2743 9.73067 37.9143 11.512 37.9143 13.944V23H32.6023V20.76C32.3249 21.5707 31.8236 22.2107 31.0983 22.68C30.3729 23.128 29.4876 23.352 28.4422 23.352ZM29.7222 19.64C30.5116 19.64 31.1729 19.384 31.7063 18.872C32.2609 18.36 32.5382 17.688 32.5382 16.856V16.28H31.3223C30.0636 16.28 29.1356 16.4187 28.5382 16.696C27.9623 16.952 27.6743 17.368 27.6743 17.944C27.6743 18.4347 27.8449 18.84 28.1862 19.16C28.5489 19.48 29.0609 19.64 29.7222 19.64ZM39.5577 23V7.256H45.0937V9.912C45.8191 8.09867 47.3871 7.10667 49.7977 6.936L51.3658 6.808L51.6858 11.608L48.5817 11.896C47.4511 12.0027 46.6297 12.3227 46.1177 12.856C45.6057 13.368 45.3497 14.136 45.3497 15.16V23H39.5577ZM57.6955 23.352C56.3515 23.352 55.1568 23.0213 54.1115 22.36C53.0875 21.6987 52.2768 20.7493 51.6795 19.512C51.1035 18.2747 50.8155 16.8133 50.8155 15.128C50.8155 13.4213 51.1035 11.96 51.6795 10.744C52.2768 9.50667 53.0875 8.55733 54.1115 7.896C55.1568 7.23467 56.3515 6.904 57.6955 6.904C58.6982 6.904 59.6155 7.11733 60.4475 7.544C61.3008 7.94933 61.9515 8.48267 62.3995 9.144V0.439999H68.0955V23H62.5275V20.824C62.1222 21.592 61.4822 22.2107 60.6075 22.68C59.7328 23.128 58.7622 23.352 57.6955 23.352ZM59.5195 19.16C60.3728 19.16 61.0768 18.84 61.6315 18.2C62.1862 17.56 62.4635 16.536 62.4635 15.128C62.4635 13.6987 62.1862 12.6747 61.6315 12.056C61.0768 11.416 60.3728 11.096 59.5195 11.096C58.6448 11.096 57.9302 11.416 57.3755 12.056C56.8208 12.6747 56.5435 13.6987 56.5435 15.128C56.5435 16.536 56.8208 17.56 57.3755 18.2C57.9302 18.84 58.6448 19.16 59.5195 19.16ZM78.3712 23.352C76.4512 23.352 74.7872 23.0213 73.3792 22.36C71.9926 21.6773 70.9259 20.7173 70.1792 19.48C69.4326 18.2427 69.0592 16.7813 69.0592 15.096C69.0592 13.496 69.4112 12.0773 70.1152 10.84C70.8406 9.60267 71.8219 8.64267 73.0592 7.96C74.3179 7.256 75.7472 6.904 77.3472 6.904C78.9259 6.904 80.2912 7.23467 81.4432 7.896C82.6166 8.55733 83.5126 9.50667 84.1312 10.744C84.7712 11.96 85.0912 13.3893 85.0912 15.032V16.28H74.4992C74.6912 17.304 75.1179 18.04 75.7792 18.488C76.4406 18.936 77.3579 19.16 78.5312 19.16C79.3419 19.16 80.1846 19.0427 81.0592 18.808C81.9552 18.552 82.7446 18.1893 83.4272 17.72L84.8352 21.464C84.0246 22.04 83.0326 22.4987 81.8592 22.84C80.6859 23.1813 79.5232 23.352 78.3712 23.352ZM77.6032 10.584C76.7499 10.584 76.0459 10.84 75.4912 11.352C74.9579 11.864 74.6166 12.6107 74.4672 13.592H80.4192C80.3552 12.5893 80.0779 11.8427 79.5872 11.352C79.1179 10.84 78.4566 10.584 77.6032 10.584ZM85.9453 23V7.256H91.4813V9.4C92.0359 8.58933 92.7506 7.97067 93.6253 7.544C94.4999 7.11733 95.4813 6.904 96.5693 6.904C98.4466 6.904 99.8333 7.45867 100.729 8.568C101.647 9.67733 102.105 11.384 102.105 13.688V23H96.4093V13.912C96.4093 12.952 96.2386 12.2693 95.8973 11.864C95.5773 11.4587 95.0973 11.256 94.4573 11.256C93.6039 11.256 92.9213 11.5333 92.4093 12.088C91.8973 12.6213 91.6413 13.3467 91.6413 14.264V23H85.9453ZM123.212 23.352C120.63 23.352 118.433 22.872 116.62 21.912C114.828 20.952 113.462 19.608 112.524 17.88C111.585 16.152 111.116 14.136 111.116 11.832C111.116 9.44267 111.606 7.37333 112.588 5.624C113.59 3.85333 115.02 2.488 116.876 1.528C118.732 0.568 120.972 0.0879993 123.596 0.0879993C125.174 0.0879993 126.678 0.301332 128.108 0.727999C129.537 1.13333 130.7 1.688 131.596 2.392L129.804 6.936C128.822 6.296 127.83 5.83733 126.828 5.56C125.825 5.26133 124.758 5.112 123.628 5.112C121.473 5.112 119.862 5.688 118.796 6.84C117.75 7.992 117.228 9.656 117.228 11.832C117.228 14.008 117.761 15.6507 118.828 16.76C119.894 17.8693 121.473 18.424 123.564 18.424C124.545 18.424 125.644 18.2747 126.86 17.976V14.424H122.348V10.296H131.66V21.624C130.465 22.1787 129.132 22.6053 127.66 22.904C126.188 23.2027 124.705 23.352 123.212 23.352ZM139.502 23.352C137.454 23.352 135.939 22.7973 134.958 21.688C133.998 20.5573 133.518 18.84 133.518 16.536V7.256H139.214V16.696C139.214 18.232 139.875 19 141.198 19C141.966 19 142.595 18.7227 143.086 18.168C143.577 17.6133 143.822 16.8773 143.822 15.96V7.256H149.518V23H143.95V21.048C142.926 22.584 141.443 23.352 139.502 23.352ZM151.233 23V7.256H156.769V9.912C157.494 8.09867 159.062 7.10667 161.473 6.936L163.041 6.808L163.361 11.608L160.257 11.896C159.126 12.0027 158.305 12.3227 157.793 12.856C157.281 13.368 157.025 14.136 157.025 15.16V23H151.233ZM169.396 23.352C167.348 23.352 165.833 22.7973 164.852 21.688C163.892 20.5573 163.412 18.84 163.412 16.536V7.256H169.108V16.696C169.108 18.232 169.769 19 171.092 19C171.86 19 172.489 18.7227 172.98 18.168C173.47 17.6133 173.716 16.8773 173.716 15.96V7.256H179.412V23H173.844V21.048C172.82 22.584 171.337 23.352 169.396 23.352Z" fill="#20221A"/>
</svg>
