<svg width="247" height="48" viewBox="0 0 247 48" fill="none" xmlns="http://www.w3.org/2000/svg">
<path d="M14.012 2.33752C14.012 0.204791 16.6701 -0.831975 18.105 0.803171L20 2.9695L21.895 0.804771C23.3299 -0.831975 25.988 0.204791 25.988 2.33752V5.26542C25.988 6.44618 26.6934 7.51335 27.8092 8.00453C34.9659 11.0316 40 18.1242 40 26.3847C40 36.106 33.0277 44.2177 23.7916 45.9841V46.0001C23.7916 47.104 22.8938 48 21.7876 48H18.3246C17.2184 48 16.3206 47.104 16.3206 46.0001V45.9921C7.14709 44.2145 0 35.9044 0 26.3687C0 18.1034 5.03888 11.0268 12.1972 8.00133C12.7326 7.77409 13.1897 7.3955 13.5122 6.91221C13.8346 6.42892 14.0084 5.86204 14.012 5.28142V2.33752ZM17.2184 4.65584V5.27982C17.2151 6.48748 16.857 7.66765 16.1885 8.67431C15.52 9.68098 14.5705 10.47 13.4573 10.9436L13.4509 10.9468C13.1559 11.07 12.8673 11.2028 12.582 11.3436C9.43968 14.6795 7.58317 19.8889 7.58317 25.4872C7.58317 33.9829 11.8236 41.0914 17.4477 42.7746C15.2898 39.5523 14.1403 32.3525 14.1403 25.4727C14.1403 19.4569 14.9419 13.9371 16.3367 10.3693L17.5391 10.8332C16.2244 14.2091 15.4389 19.6809 15.4389 25.4727C15.4389 30.3206 15.9679 34.8804 16.9459 38.3043C17.8309 41.4226 18.8697 42.8162 19.6553 43.1394C19.891 43.1442 20.1283 43.1442 20.3623 43.1394C21.1463 42.8146 22.1852 41.421 23.0701 38.3043C24.0321 34.8804 24.5772 30.3366 24.5772 25.4727C24.5772 19.6969 23.7916 14.2251 22.477 10.8332L23.6794 10.3693C25.0741 13.9531 25.8757 19.4569 25.8757 25.4727C25.8645 32.3525 24.7214 39.5539 22.5667 42.7746C28.1908 41.0946 32.4329 33.9845 32.4329 25.4888C32.4329 19.8969 30.5812 14.6955 27.4485 11.358C27.1534 11.2121 26.854 11.075 26.5507 10.9468L26.5315 10.9388C25.4206 10.4604 24.474 9.66867 23.8078 8.66079C23.1417 7.65291 22.785 6.47281 22.7816 5.26542V4.65584L21.7635 5.8174C21.5463 6.06742 21.2782 6.26838 20.977 6.4069C20.6759 6.54542 20.3486 6.61832 20.017 6.62074C19.6854 6.62316 19.3571 6.55505 19.054 6.42095C18.7508 6.28684 18.4798 6.08982 18.2589 5.843L18.2493 5.8318L17.2184 4.65584ZM9.09018 13.6363C7.2432 15.2061 5.76033 17.1579 4.74436 19.3564C3.72839 21.5549 3.20362 23.9477 3.20641 26.3687C3.20641 32.4437 6.7014 37.9523 11.7595 40.8962C11.1743 40.3011 10.6212 39.6387 10.1002 38.9123C7.51904 35.3124 6.10822 30.5446 6.10822 25.4888C6.10822 21.1241 7.18236 16.9658 9.09018 13.6363ZM28.0353 41.1026C30.6861 39.6613 32.8986 37.5335 34.4399 34.9432C35.9812 32.3528 36.7943 29.3957 36.7936 26.3831C36.7936 21.3017 34.5234 16.7434 30.9435 13.6683C32.8417 16.993 33.9078 21.1369 33.9078 25.4872C33.9078 30.543 32.497 35.3108 29.9158 38.9107C29.3536 39.6942 28.7244 40.4276 28.0353 41.1026Z" fill="#717960"/>
<path d="M64.568 36.352C61.9867 36.352 59.7893 35.872 57.976 34.912C56.184 33.952 54.8187 32.608 53.88 30.88C52.9413 29.152 52.472 27.136 52.472 24.832C52.472 22.4427 52.9627 20.3733 53.944 18.624C54.9467 16.8533 56.376 15.488 58.232 14.528C60.088 13.568 62.328 13.088 64.952 13.088C66.5307 13.088 68.0347 13.3013 69.464 13.728C70.8933 14.1333 72.056 14.688 72.952 15.392L71.16 19.936C70.1787 19.296 69.1867 18.8373 68.184 18.56C67.1813 18.2613 66.1147 18.112 64.984 18.112C62.8293 18.112 61.2187 18.688 60.152 19.84C59.1067 20.992 58.584 22.656 58.584 24.832C58.584 27.008 59.1173 28.6507 60.184 29.76C61.2507 30.8693 62.8293 31.424 64.92 31.424C65.9013 31.424 67 31.2747 68.216 30.976V27.424H63.704V23.296H73.016V34.624C71.8213 35.1787 70.488 35.6053 69.016 35.904C67.544 36.2027 66.0613 36.352 64.568 36.352Z" fill="#20221A"/>
<path d="M80.4423 36.352C79.2263 36.352 78.1489 36.128 77.2103 35.68C76.2929 35.232 75.5676 34.624 75.0342 33.856C74.5222 33.0667 74.2663 32.1707 74.2663 31.168C74.2663 30.0373 74.5649 29.1413 75.1622 28.48C75.7596 27.7973 76.7196 27.3173 78.0423 27.04C79.3649 26.7413 81.1249 26.592 83.3223 26.592H84.5383V26.144C84.5383 25.376 84.3356 24.832 83.9303 24.512C83.5463 24.192 82.8743 24.032 81.9143 24.032C81.1036 24.032 80.2076 24.16 79.2262 24.416C78.2449 24.672 77.2849 25.0667 76.3463 25.6L74.9062 21.856C75.4396 21.472 76.1222 21.1307 76.9542 20.832C77.7862 20.5333 78.6609 20.3093 79.5782 20.16C80.4956 19.9893 81.3596 19.904 82.1702 19.904C84.7942 19.904 86.7356 20.4693 87.9942 21.6C89.2742 22.7307 89.9143 24.512 89.9143 26.944V36H84.6022V33.76C84.3249 34.5707 83.8236 35.2107 83.0983 35.68C82.3729 36.128 81.4876 36.352 80.4423 36.352ZM81.7223 32.64C82.5116 32.64 83.1729 32.384 83.7063 31.872C84.2609 31.36 84.5383 30.688 84.5383 29.856V29.28H83.3223C82.0636 29.28 81.1356 29.4187 80.5383 29.696C79.9623 29.952 79.6742 30.368 79.6742 30.944C79.6742 31.4347 79.8449 31.84 80.1862 32.16C80.5489 32.48 81.0609 32.64 81.7223 32.64Z" fill="#20221A"/>
<path d="M91.5577 36V20.256H97.0938V22.912C97.8191 21.0987 99.3871 20.1067 101.798 19.936L103.366 19.808L103.686 24.608L100.582 24.896C99.4511 25.0027 98.6298 25.3227 98.1178 25.856C97.6058 26.368 97.3497 27.136 97.3497 28.16V36H91.5577Z" fill="#20221A"/>
<path d="M109.696 36.352C108.352 36.352 107.157 36.0213 106.112 35.36C105.088 34.6987 104.277 33.7493 103.68 32.512C103.104 31.2747 102.815 29.8133 102.815 28.128C102.815 26.4213 103.104 24.96 103.68 23.744C104.277 22.5067 105.088 21.5573 106.112 20.896C107.157 20.2347 108.352 19.904 109.696 19.904C110.698 19.904 111.616 20.1173 112.448 20.544C113.301 20.9493 113.952 21.4827 114.4 22.144V13.44H120.096V36H114.528V33.824C114.122 34.592 113.482 35.2107 112.607 35.68C111.733 36.128 110.762 36.352 109.696 36.352ZM111.52 32.16C112.373 32.16 113.077 31.84 113.632 31.2C114.186 30.56 114.464 29.536 114.464 28.128C114.464 26.6987 114.186 25.6747 113.632 25.056C113.077 24.416 112.373 24.096 111.52 24.096C110.645 24.096 109.93 24.416 109.376 25.056C108.821 25.6747 108.544 26.6987 108.544 28.128C108.544 29.536 108.821 30.56 109.376 31.2C109.93 31.84 110.645 32.16 111.52 32.16Z" fill="#20221A"/>
<path d="M130.371 36.352C128.451 36.352 126.787 36.0213 125.379 35.36C123.993 34.6773 122.926 33.7173 122.179 32.48C121.433 31.2427 121.059 29.7813 121.059 28.096C121.059 26.496 121.411 25.0773 122.115 23.84C122.841 22.6027 123.822 21.6427 125.059 20.96C126.318 20.256 127.747 19.904 129.347 19.904C130.926 19.904 132.291 20.2347 133.443 20.896C134.617 21.5573 135.513 22.5067 136.131 23.744C136.771 24.96 137.091 26.3893 137.091 28.032V29.28H126.499C126.691 30.304 127.118 31.04 127.779 31.488C128.441 31.936 129.358 32.16 130.531 32.16C131.342 32.16 132.185 32.0427 133.059 31.808C133.955 31.552 134.745 31.1893 135.427 30.72L136.835 34.464C136.025 35.04 135.033 35.4987 133.859 35.84C132.686 36.1813 131.523 36.352 130.371 36.352ZM129.603 23.584C128.75 23.584 128.046 23.84 127.491 24.352C126.958 24.864 126.617 25.6107 126.467 26.592H132.419C132.355 25.5893 132.078 24.8427 131.587 24.352C131.118 23.84 130.457 23.584 129.603 23.584Z" fill="#20221A"/>
<path d="M137.945 36V20.256H143.481V22.4C144.036 21.5893 144.751 20.9707 145.625 20.544C146.5 20.1173 147.481 19.904 148.569 19.904C150.447 19.904 151.833 20.4587 152.729 21.568C153.647 22.6773 154.105 24.384 154.105 26.688V36H148.409V26.912C148.409 25.952 148.239 25.2693 147.897 24.864C147.577 24.4587 147.097 24.256 146.457 24.256C145.604 24.256 144.921 24.5333 144.409 25.088C143.897 25.6213 143.641 26.3467 143.641 27.264V36H137.945Z" fill="#20221A"/>
<path d="M175.212 36.352C172.63 36.352 170.433 35.872 168.62 34.912C166.828 33.952 165.462 32.608 164.524 30.88C163.585 29.152 163.116 27.136 163.116 24.832C163.116 22.4427 163.606 20.3733 164.588 18.624C165.59 16.8533 167.02 15.488 168.876 14.528C170.732 13.568 172.972 13.088 175.596 13.088C177.174 13.088 178.678 13.3013 180.108 13.728C181.537 14.1333 182.7 14.688 183.596 15.392L181.804 19.936C180.822 19.296 179.83 18.8373 178.828 18.56C177.825 18.2613 176.758 18.112 175.628 18.112C173.473 18.112 171.862 18.688 170.796 19.84C169.75 20.992 169.228 22.656 169.228 24.832C169.228 27.008 169.761 28.6507 170.828 29.76C171.894 30.8693 173.473 31.424 175.564 31.424C176.545 31.424 177.644 31.2747 178.86 30.976V27.424H174.348V23.296H183.66V34.624C182.465 35.1787 181.132 35.6053 179.66 35.904C178.188 36.2027 176.705 36.352 175.212 36.352Z" fill="#20221A"/>
<path d="M191.502 36.352C189.454 36.352 187.939 35.7973 186.958 34.688C185.998 33.5573 185.518 31.84 185.518 29.536V20.256H191.214V29.696C191.214 31.232 191.875 32 193.198 32C193.966 32 194.595 31.7227 195.086 31.168C195.577 30.6133 195.822 29.8773 195.822 28.96V20.256H201.518V36H195.95V34.048C194.926 35.584 193.443 36.352 191.502 36.352Z" fill="#20221A"/>
<path d="M203.233 36V20.256H208.769V22.912C209.494 21.0987 211.062 20.1067 213.473 19.936L215.041 19.808L215.361 24.608L212.257 24.896C211.126 25.0027 210.305 25.3227 209.793 25.856C209.281 26.368 209.025 27.136 209.025 28.16V36H203.233Z" fill="#20221A"/>
<path d="M221.396 36.352C219.348 36.352 217.833 35.7973 216.852 34.688C215.892 33.5573 215.412 31.84 215.412 29.536V20.256H221.108V29.696C221.108 31.232 221.769 32 223.092 32C223.86 32 224.489 31.7227 224.98 31.168C225.47 30.6133 225.716 29.8773 225.716 28.96V20.256H231.412V36H225.844V34.048C224.82 35.584 223.337 36.352 221.396 36.352Z" fill="#20221A"/>
<path d="M239.398 36.352C237.948 36.352 236.604 36.2027 235.367 35.904C234.151 35.6053 233.116 35.1893 232.262 34.656L233.574 30.976C234.364 31.424 235.281 31.7973 236.326 32.096C237.372 32.3733 238.406 32.512 239.43 32.512C240.22 32.512 240.785 32.4053 241.126 32.192C241.468 31.9573 241.638 31.6587 241.638 31.296C241.638 30.976 241.521 30.7413 241.286 30.592C241.073 30.4213 240.764 30.2933 240.358 30.208L236.806 29.632C235.484 29.4187 234.46 28.9387 233.734 28.192C233.009 27.4453 232.646 26.4747 232.646 25.28C232.646 24.1707 232.956 23.2213 233.574 22.432C234.193 21.6213 235.057 21.0027 236.166 20.576C237.276 20.128 238.545 19.904 239.974 19.904C241.105 19.904 242.225 20.0427 243.334 20.32C244.444 20.576 245.414 21.0027 246.246 21.6L244.839 25.216C244.22 24.7893 243.452 24.4373 242.535 24.16C241.617 23.8613 240.796 23.712 240.07 23.712C239.196 23.712 238.577 23.84 238.214 24.096C237.852 24.3307 237.671 24.6187 237.671 24.96C237.671 25.536 238.065 25.888 238.854 26.016L242.406 26.624C243.772 26.8373 244.817 27.3067 245.542 28.032C246.289 28.736 246.662 29.696 246.662 30.912C246.662 32.64 246.001 33.984 244.678 34.944C243.356 35.8827 241.596 36.352 239.398 36.352Z" fill="#20221A"/>
</svg>
