<svg width="100" height="100" viewBox="0 0 100 100" fill="none" xmlns="http://www.w3.org/2000/svg">
<path d="M100 50C100 77.6142 77.6142 100 50 100C22.3858 100 0 77.6142 0 50C0 22.3858 22.3858 0 50 0C77.6142 0 100 22.3858 100 50Z" fill="#EFF3ED"/>
<path fill-rule="evenodd" clip-rule="evenodd" d="M51.5915 20.7835L63.4249 32.6168C63.8734 33.0654 64.1659 33.6463 64.2591 34.2738C64.3523 34.9013 64.2413 35.5421 63.9426 36.1017C63.2119 37.4714 62.07 38.3944 60.9547 39.0216L69.3415 47.4085C69.8961 47.9632 70.2077 48.7156 70.2077 49.5C70.2077 50.2844 69.8961 51.0368 69.3415 51.5915C67.9275 53.0056 66.1406 53.8695 64.5076 54.4079L72.2999 62.2001C72.6565 62.5569 72.916 62.999 73.0537 63.4843C73.1914 63.9697 73.2026 64.4821 73.0864 64.9731C72.9702 65.464 72.7304 65.917 72.3898 66.2892C72.0491 66.6613 71.619 66.9401 71.1402 67.0991C69.093 67.7766 66.9837 68.2499 64.8715 68.673C63.2681 68.9925 61.3955 69.312 59.3098 69.5782L61.1825 75.1902C61.3306 75.6349 61.3709 76.1085 61.3001 76.5718C61.2293 77.0352 61.0494 77.4751 60.7752 77.8553C60.501 78.2356 60.1404 78.5452 59.7231 78.7587C59.3058 78.9722 58.8438 79.0834 58.375 79.0833H40.625C40.1562 79.0834 39.6942 78.9722 39.2769 78.7587C38.8596 78.5452 38.499 78.2356 38.2248 77.8553C37.9506 77.4751 37.7707 77.0352 37.6999 76.5718C37.6291 76.1085 37.6694 75.6349 37.8175 75.1902L39.6902 69.5782C37.8262 69.3423 35.9711 69.0403 34.1285 68.673C32.5465 68.3575 30.9766 67.9845 29.4218 67.5547L27.8539 67.0991C27.3756 66.9394 26.946 66.6601 26.606 66.2877C26.2661 65.9152 26.0269 65.4621 25.9113 64.9713C25.7957 64.4804 25.8075 63.9682 25.9456 63.4832C26.0836 62.9982 26.3434 62.5565 26.7001 62.2001L34.4924 54.4079C32.8594 53.8724 31.0725 53.0056 29.6585 51.5915C29.1039 51.0368 28.7923 50.2844 28.7923 49.5C28.7923 48.7156 29.1039 47.9632 29.6585 47.4085L38.0453 39.0216C36.93 38.3944 35.7881 37.4714 35.0574 36.1017C34.7587 35.5421 34.6477 34.9013 34.7409 34.2738C34.8341 33.6463 35.1266 33.0654 35.5751 32.6168L47.4085 20.7835C47.9632 20.2289 48.7156 19.9173 49.5 19.9173C50.2844 19.9173 51.0368 20.2289 51.5915 20.7835ZM53.2541 70.1137C51.1622 70.2181 49.0669 70.2358 46.9736 70.1669L45.7459 70.1137L44.7282 73.1667H54.2718L53.2541 70.1137ZM49.5 27.0581L42.187 34.3711L42.4828 34.4569L43.036 34.5841L43.8525 34.7202C44.9856 34.8385 45.9737 35.5781 46.3671 36.6579C46.5585 37.187 46.595 37.7597 46.4724 38.3088C46.3498 38.858 46.0731 39.3608 45.6749 39.7582L36.5721 48.861C37.8235 49.2456 39.2494 49.5 40.6309 49.5C41.2154 49.5013 41.7864 49.6757 42.2719 50.0012C42.7574 50.3268 43.1356 50.7888 43.3587 51.329C43.5818 51.8693 43.6399 52.4635 43.5256 53.0367C43.4113 53.61 43.1298 54.1365 42.7165 54.5499L34.5515 62.7178L36.0721 63.0225C39.557 63.6793 44.2283 64.2917 49.5 64.2917C53.7252 64.2835 57.9418 63.9094 62.1025 63.1734L63.7118 62.8687L64.4514 62.7178L56.2835 54.5528C55.891 54.1604 55.6168 53.6654 55.4923 53.1244C55.3678 52.5835 55.398 52.0185 55.5795 51.4939C55.7609 50.9694 56.0863 50.5064 56.5184 50.158C56.9504 49.8096 57.4718 49.5898 58.023 49.5237L58.372 49.5C59.7469 49.4736 61.1116 49.2586 62.4279 48.861L53.3251 39.7582C52.9505 39.3838 52.6833 38.9156 52.5514 38.4027C52.4195 37.8897 52.4277 37.3507 52.5752 36.842C52.7227 36.3333 53.0041 35.8736 53.3899 35.5107C53.7758 35.1479 54.252 34.8953 54.7688 34.7793L55.7243 34.6314L56.2332 34.5249C56.4166 34.4835 56.6148 34.4332 56.813 34.3711L49.5 27.0581Z" fill="#20221A"/>
</svg>
