<svg width="100" height="100" viewBox="0 0 100 100" fill="none" xmlns="http://www.w3.org/2000/svg">
<path d="M100 50C100 77.6142 77.6142 100 50 100C22.3858 100 0 77.6142 0 50C0 22.3858 22.3858 0 50 0C77.6142 0 100 22.3858 100 50Z" fill="#EFF3ED"/>
<path d="M76.25 27.5H23.75C23.1698 27.5 22.6134 27.7371 22.2032 28.159C21.793 28.581 21.5625 29.1533 21.5625 29.75V70.25C21.5625 70.8467 21.793 71.419 22.2032 71.841C22.6134 72.2629 23.1698 72.5 23.75 72.5H76.25C76.8302 72.5 77.3866 72.2629 77.7968 71.841C78.207 71.419 78.4375 70.8467 78.4375 70.25V29.75C78.4375 29.1533 78.207 28.581 77.7968 28.159C77.3866 27.7371 76.8302 27.5 76.25 27.5ZM39.0625 54.5V45.5H60.9375V54.5H39.0625ZM25.9375 54.5V45.5H34.6875V54.5H25.9375ZM65.3125 45.5H74.0625V54.5H65.3125V45.5ZM74.0625 41H52.1875V32H74.0625V41ZM47.8125 32V41H25.9375V32H47.8125ZM25.9375 59H47.8125V68H25.9375V59ZM52.1875 68V59H74.0625V68H52.1875Z" fill="#20221A"/>
</svg>
